<?xml version="1.0" standalone="no"?>
<!DOCTYPE svg PUBLIC "-//W3C//DTD SVG 20010904//EN"
 "http://www.w3.org/TR/2001/REC-SVG-20010904/DTD/svg10.dtd">
<svg version="1.0" xmlns="http://www.w3.org/2000/svg"
 width="500.000000pt" height="500.000000pt" viewBox="0 0 500.000000 500.000000"
 preserveAspectRatio="xMidYMid meet">
<metadata>
Created by potrace 1.14, written by Peter Selinger 2001-2017
</metadata>
<g transform="translate(0.000000,500.000000) scale(0.100000,-0.100000)"
fill="#000000" stroke="none">
<path d="M2297 4742 c-15 -9 -42 -45 -60 -79 -22 -43 -42 -67 -62 -77 -70 -33
-89 -26 -125 49 -46 97 -111 131 -190 98 -48 -19 -81 -52 -164 -163 -127 -169
-157 -264 -172 -540 -3 -63 -8 -117 -10 -119 -2 -2 -35 23 -75 55 -193 160
-283 205 -446 220 -105 10 -184 -30 -224 -114 -18 -36 -23 -68 -26 -143 -2
-54 -9 -108 -16 -121 -7 -14 -41 -56 -76 -95 -89 -99 -104 -135 -105 -257 l-2
-98 -44 -39 c-185 -163 -215 -203 -224 -291 -6 -71 15 -150 52 -192 46 -52 46
-64 -5 -173 -52 -112 -71 -179 -69 -237 3 -96 15 -111 291 -375 71 -68 151
-137 178 -154 l48 -30 -34 -36 c-80 -82 -137 -249 -133 -391 2 -87 8 -108 70
-220 19 -35 26 -65 30 -132 7 -130 39 -181 133 -214 40 -14 159 -22 198 -14
57 13 84 -22 91 -116 20 -258 76 -310 339 -313 151 -2 198 -12 222 -47 66 -95
111 -124 205 -131 76 -7 137 9 222 58 52 30 82 40 125 43 59 4 89 13 106 31
74 80 93 115 145 267 l54 157 26 -62 c34 -81 92 -159 171 -230 177 -161 343
-228 445 -182 88 41 179 128 220 212 24 50 27 52 57 46 18 -4 40 -17 49 -29
26 -32 98 -64 146 -64 127 0 199 94 189 247 -8 120 11 142 138 159 91 12 156
72 191 177 17 50 22 147 9 186 -4 15 1 20 27 25 18 3 44 8 58 11 34 6 77 56
90 103 28 107 -37 315 -151 484 l-39 57 78 46 c305 185 455 336 491 495 11 48
8 313 -4 343 -8 19 -37 29 -75 25 -13 -2 -25 2 -25 7 -3 43 -19 87 -36 99 -18
12 -27 12 -60 1 -21 -8 -39 -12 -39 -9 0 2 22 18 50 35 64 39 77 74 52 139
-16 44 -64 94 -120 127 -45 26 -65 53 -57 75 4 12 8 37 21 116 8 45 -17 82
-55 82 -46 0 -49 40 -11 151 32 95 15 143 -86 243 -88 87 -167 126 -267 131
-186 9 -369 -73 -574 -259 l-43 -39 -1 54 c-3 145 -22 369 -45 514 -17 110
-61 227 -110 291 -33 43 -118 94 -157 94 -30 0 -37 -11 -57 -90 -6 -25 -20
-56 -30 -70 -24 -31 -46 -21 -72 36 -11 21 -25 50 -31 64 -16 33 -71 51 -112
37 -39 -13 -62 -33 -91 -79 -30 -47 -63 -69 -108 -72 -34 -3 -36 -1 -42 33
-10 53 -28 83 -74 125 -72 65 -131 80 -183 48z"/>
</g>
</svg>
